<svg width="25" height="23" fill="none" xmlns="http://www.w3.org/2000/svg"><g clip-path="url(#clip0_2271_427)"><path d="M12.395 1.588c-5.903 0-10.688 4.437-10.688 9.91 0 .147.005.293.011.439-.622.075-1.103.569-1.103 1.167 0 .65.569 1.177 1.27 1.177h.25c1.297 4.119 5.399 7.128 10.26 7.128 5.902 0 10.687-4.437 10.687-9.91 0-5.474-4.785-9.911-10.688-9.911z" fill="#FFD469"/><path d="M17.717 8.063c.648 0 1.173.487 1.173 1.088v2.44c0 .6-.525.007-1.173.007s-1.174.594-1.174-.007V9.15c0-.601.526-1.088 1.174-1.088zm-10.638 0c-.648 0-1.174.487-1.174 1.088v2.44c0 .6.526.007 1.174.007.648 0 1.173.594 1.173-.007V9.15c0-.601-.525-1.088-1.173-1.088zm5.241 8.83c.84-.004 1.625-.324 2.153-.878a.433.433 0 00-.042-.644.519.519 0 00-.693.04c-.344.36-.863.569-1.423.572h-.012c-.559 0-1.078-.204-1.426-.56a.519.519 0 00-.694-.033.433.433 0 00-.035.644c.534.547 1.319.86 2.155.86h.017z" fill="#2B3B47"/><path d="M16.65 12.19a.387.387 0 01-.229-.073.34.34 0 01-.13-.19.32.32 0 01.026-.224.356.356 0 01.17-.16 2.992 2.992 0 012.456-.03c.043.02.082.047.115.08a.336.336 0 01.094.246.322.322 0 01-.035.13.345.345 0 01-.086.107.394.394 0 01-.405.055 2.208 2.208 0 00-1.812.024.39.39 0 01-.164.036zm-10.474-.035a2.208 2.208 0 011.812-.024.395.395 0 00.28.01.36.36 0 00.208-.174.32.32 0 00.015-.26.352.352 0 00-.186-.194 2.993 2.993 0 00-2.457.03.356.356 0 00-.17.16.32.32 0 00-.025.224.34.34 0 00.13.19.387.387 0 00.393.038z" fill="#F2A74E"/><path d="M23.07 11.937c.007-.146.011-.292.011-.439 0-2.648-1.121-5.052-2.947-6.828a9.584 9.584 0 011.63 5.335c0 5.623-4.917 10.182-10.98 10.182-2.11 0-4.081-.553-5.755-1.51 1.917 1.692 4.51 2.732 7.365 2.732 4.86 0 8.963-3.009 10.26-7.128h.25c.7 0 1.27-.527 1.27-1.178 0-.597-.481-1.09-1.104-1.166z" fill="#FFB636"/></g><defs><clipPath id="clip0_2271_427"><path fill="#fff" d="M0 0h24.802v23H0z"/></clipPath></defs></svg>