<svg width="21" height="17" fill="none" xmlns="http://www.w3.org/2000/svg"><path d="M13.912 4.22l-3.348 6.913L7.26 4.22l-2.743 8.337h-.475v.93h2.786v-.886h-.431l1.36-3.737 2.463 4.622h.67l2.462-4.665 1.382 3.736h-.497v.93h2.851v-.93h-.496L13.913 4.22z" fill="#EE3E84"/><path d="M10.5.592a9.672 9.672 0 00-6.912 2.894C1.773 5.344.78 7.785.8 10.356c0 2.245.8 4.449 2.246 6.198a.388.388 0 00.324.152h2.852c2.181 0 4.99.021 7.322.021 1.9 0 3.5 0 4.212-.021a.41.41 0 00.324-.173 9.82 9.82 0 002.182-6.2c0-5.356-4.385-9.741-9.763-9.741zm7.02 15.25c-1.858.043-7.755.021-11.319 0H3.566a8.86 8.86 0 01.648-11.75c1.685-1.686 3.91-2.636 6.286-2.636 4.903 0 8.899 3.996 8.899 8.9a8.834 8.834 0 01-1.88 5.486z" fill="#EE3E84"/></svg>