<svg width="22" height="14" fill="none" xmlns="http://www.w3.org/2000/svg"><path d="M19.938.813H2.063A1.375 1.375 0 00.687 2.188v9.624a1.375 1.375 0 001.375 1.376h17.875a1.375 1.375 0 001.375-1.376V2.188A1.375 1.375 0 0019.938.812zm-12.805 11l-5.07-4.435v-.756l5.07-4.434h7.734l5.07 4.434v.756l-5.07 4.434H7.133zM19.938 4.8l-2.982-2.612h2.982V4.8zM5.044 2.188L2.063 4.8V2.188h2.982zM2.063 9.2l2.982 2.613H2.063V9.2zm17.875 2.613h-2.982L19.938 9.2v2.613zM11 3.563a3.437 3.437 0 100 6.874 3.437 3.437 0 000-6.874zm0 5.5A2.063 2.063 0 1113.063 7 2.071 2.071 0 0111 9.063z" fill="#FFB636"/></svg>