<svg width="14" height="14" fill="none" xmlns="http://www.w3.org/2000/svg"><g clip-path="url(#clip0_2271_424)"><path d="M10.094 4.979a.473.473 0 010 .71L6.426 9.053a.582.582 0 01-.774 0L3.906 7.452a.473.473 0 010-.71.582.582 0 01.773 0l1.36 1.248L9.32 4.979a.582.582 0 01.773 0zM14 7.017c0 3.55-3.131 6.421-7 6.421-3.87 0-7-2.872-7-6.421C0 3.467 3.131.595 7 .595c3.87 0 7 2.873 7 6.422zm-1.094 0c0-2.995-2.642-5.419-5.906-5.419-3.265 0-5.906 2.424-5.906 5.419 0 2.994 2.642 5.418 5.906 5.418 3.265 0 5.906-2.424 5.906-5.418z" fill="#31DA92"/></g><defs><clipPath id="clip0_2271_424"><path fill="#fff" transform="translate(0 .595)" d="M0 0h14v12.843H0z"/></clipPath></defs></svg>