<svg width="10" height="10" viewBox="0 0 10 10" fill="none" xmlns="http://www.w3.org/2000/svg">
<g clip-path="url(.clip0)">
<path d="M9.6673 2.29081C9.46768 2.08169 9.19202 1.95811 8.87833 1.95811H7.30038V1.9391C7.30038 1.70146 7.20532 1.47332 7.04373 1.32123C6.88213 1.15963 6.6635 1.06458 6.42586 1.06458H3.57414C3.327 1.06458 3.10837 1.15963 2.94677 1.32123C2.78517 1.48283 2.69011 1.70146 2.69011 1.9391V1.95811H1.12167C0.807985 1.95811 0.532319 2.08169 0.3327 2.29081C0.13308 2.49043 0 2.7756 0 3.07978V7.81362C0 8.12731 0.123574 8.40298 0.3327 8.6026C0.532319 8.80222 0.817491 8.9353 1.12167 8.9353H8.87833C9.19202 8.9353 9.46768 8.81172 9.6673 8.6026C9.86692 8.40298 10 8.11781 10 7.81362V3.07978C10 2.7661 9.87643 2.49043 9.6673 2.29081ZM9.5057 7.81362H9.4962C9.4962 7.98473 9.42966 8.13682 9.31559 8.25089C9.20152 8.36496 9.04943 8.4315 8.87833 8.4315H1.12167C0.95057 8.4315 0.798479 8.36496 0.684411 8.25089C0.570342 8.13682 0.503802 7.98473 0.503802 7.81362V3.07978C0.503802 2.90868 0.570342 2.75659 0.684411 2.64252C0.798479 2.52845 0.95057 2.46191 1.12167 2.46191H2.95627C3.09886 2.46191 3.21293 2.34785 3.21293 2.20526V1.92959C3.21293 1.82503 3.25095 1.72997 3.31749 1.66343C3.38403 1.59689 3.47909 1.55887 3.58365 1.55887H6.42586C6.53042 1.55887 6.62548 1.59689 6.69202 1.66343C6.75856 1.72997 6.79658 1.82503 6.79658 1.92959V2.20526C6.79658 2.34785 6.91065 2.46191 7.05323 2.46191H8.88783C9.05894 2.46191 9.21103 2.52845 9.3251 2.64252C9.43916 2.75659 9.5057 2.90868 9.5057 3.07978V7.81362Z" fill="white"/>
<path d="M5 3.10828C4.35361 3.10828 3.76426 3.37444 3.34601 3.79269C2.91825 4.22044 2.6616 4.80029 2.6616 5.44668C2.6616 6.09307 2.92776 6.68242 3.34601 7.10067C3.77376 7.52843 4.35361 7.78508 5 7.78508C5.64639 7.78508 6.23574 7.51892 6.65399 7.10067C7.08175 6.67292 7.3384 6.09307 7.3384 5.44668C7.3384 4.80029 7.07225 4.21094 6.65399 3.79269C6.23574 3.37444 5.64639 3.10828 5 3.10828ZM6.29278 6.74896C5.96008 7.07216 5.5038 7.28128 5 7.28128C4.4962 7.28128 4.03992 7.07216 3.70722 6.74896C3.37452 6.41626 3.1749 5.95999 3.1749 5.45619C3.1749 4.95238 3.38403 4.49611 3.70722 4.16341C4.03992 3.83071 4.4962 3.63109 5 3.63109C5.5038 3.63109 5.96008 3.84022 6.29278 4.16341C6.62548 4.49611 6.8251 4.95238 6.8251 5.45619C6.8346 5.95999 6.62548 6.41626 6.29278 6.74896Z" fill="white"/>
<path d="M8.38403 4.03044C8.64127 4.03044 8.84981 3.8219 8.84981 3.56466C8.84981 3.30741 8.64127 3.09888 8.38403 3.09888C8.12679 3.09888 7.91825 3.30741 7.91825 3.56466C7.91825 3.8219 8.12679 4.03044 8.38403 4.03044Z" fill="white"/>
</g>
<defs>
<clipPath class="clip0">
<rect width="10" height="10" fill="white"/>
</clipPath>
</defs>
</svg>
