<?xml version="1.0" standalone="no"?>
<!DOCTYPE svg PUBLIC "-//W3C//DTD SVG 20010904//EN"
 "http://www.w3.org/TR/2001/REC-SVG-20010904/DTD/svg10.dtd">
<svg version="1.0" xmlns="http://www.w3.org/2000/svg"
 width="88.000000pt" height="88.000000pt" viewBox="0 0 88.000000 88.000000"
 preserveAspectRatio="xMidYMid meet">
<metadata>
Created by potrace 1.14, written by Peter Selinger 2001-2017
</metadata>
<g transform="translate(0.000000,88.000000) scale(0.100000,-0.100000)"
fill="#000000" stroke="none">
<path d="M249 844 c-59 -18 -134 -68 -171 -115 -16 -20 -40 -62 -53 -95 -22
-54 -24 -71 -22 -204 2 -142 3 -147 35 -212 38 -77 92 -130 171 -167 53 -25
64 -26 221 -26 157 0 168 1 220 26 82 39 135 90 172 167 l33 67 0 155 0 155
-33 67 c-43 87 -111 148 -198 177 -53 17 -88 21 -197 20 -84 0 -149 -6 -178
-15z m364 -163 c21 -13 50 -42 65 -64 25 -38 27 -49 30 -166 3 -117 2 -129
-21 -171 -13 -25 -43 -58 -66 -75 l-43 -30 -148 0 -148 0 -43 30 c-71 50 -84
88 -84 240 0 119 2 133 24 168 23 37 77 79 117 90 10 3 77 5 149 4 118 -2 134
-4 168 -26z"/>
<path d="M270 552 c-29 -9 -46 -48 -36 -86 5 -20 19 -33 51 -47 68 -30 60 -44
-22 -39 -29 1 -33 -1 -33 -24 0 -22 5 -26 33 -27 101 -3 137 14 137 66 0 39
-17 59 -65 76 -49 18 -46 40 5 35 32 -3 40 0 46 16 3 11 3 22 0 25 -9 9 -90
12 -116 5z"/>
<path d="M412 534 c-1 -19 4 -23 31 -26 l32 -3 3 -87 3 -88 34 0 35 0 0 90 0
90 33 0 c25 0 33 4 34 20 2 25 -14 29 -117 28 -82 -1 -86 -2 -88 -24z"/>
</g>
</svg>
